<svg xmlns="http://www.w3.org/2000/svg" width="800" height="400"><rect width="800" height="400" x="0" y="0" fill="#FFFFFF" id="backgorund"/><g id="viz"><g transform="translate(0,0)"><g id="pie" transform="translate(80,204)"><path fill="rgb(158, 1, 66)" stroke="#FFFFFF" d="M2.199720533627135e-15,-35.92416254480339A35.92416254480339,35.92416254480339,0,0,1,35.02346878668563,7.993878201068098L0,0Z"/><path fill="rgb(94, 79, 162)" stroke="#FFFFFF" d="M35.02346878668563,7.993878201068098A35.92416254480339,35.92416254480339,0,1,1,-6.599161600881405e-15,-35.92416254480339L0,0Z"/></g><text y="164.07583745519662" x="80" style="font-family: Arial, sans-serif; font-size: 12px; fill: black; font-weight: bold; dominant-baseline: auto; text-anchor: middle;">north</text></g><g transform="translate(160,0)"><g id="pie" transform="translate(80,204)"><path fill="rgb(158, 1, 66)" stroke="#FFFFFF" d="M2.997713784555324e-15,-48.95638132794613A48.95638132794613,48.95638132794613,0,0,1,48.5994341879804,-5.901039682584317L0,0Z"/><path fill="rgb(94, 79, 162)" stroke="#FFFFFF" d="M48.5994341879804,-5.901039682584317A48.95638132794613,48.95638132794613,0,1,1,-5.247514275575788e-14,-48.95638132794613L0,0Z"/></g><text y="151.04361867205387" x="80" style="font-family: Arial, sans-serif; font-size: 12px; fill: black; font-weight: bold; dominant-baseline: auto; text-anchor: middle;">center</text></g><g transform="translate(320,0)"><g id="pie" transform="translate(80,204)"><path fill="rgb(158, 1, 66)" stroke="#FFFFFF" d="M3.810027726694721e-15,-62.22247474696232A62.22247474696232,62.22247474696232,0,0,1,60.662427395842215,13.845803193767242L0,0Z"/><path fill="rgb(94, 79, 162)" stroke="#FFFFFF" d="M60.662427395842215,13.845803193767242A62.22247474696232,62.22247474696232,0,1,1,-1.1430083180084163e-14,-62.22247474696232L0,0Z"/></g><text y="137.77752525303768" x="80" style="font-family: Arial, sans-serif; font-size: 12px; fill: black; font-weight: bold; dominant-baseline: auto; text-anchor: middle;">west</text></g><g transform="translate(480,0)"><g id="pie" transform="translate(80,204)"><path fill="rgb(158, 1, 66)" stroke="#FFFFFF" d="M4.1570810612997816e-15,-67.89028582272216A67.89028582272216,67.89028582272216,0,0,1,64.56749872484039,-20.979252072193706L0,0Z"/><path fill="rgb(94, 79, 162)" stroke="#FFFFFF" d="M64.56749872484039,-20.979252072193706A67.89028582272216,67.89028582272216,0,1,1,-1.2471243183899344e-14,-67.89028582272216L0,0Z"/></g><text y="132.10971417727785" x="80" style="font-family: Arial, sans-serif; font-size: 12px; fill: black; font-weight: bold; dominant-baseline: auto; text-anchor: middle;">south</text></g><g transform="translate(640,0)"><g id="pie" transform="translate(80,204)"><path fill="rgb(158, 1, 66)" stroke="#FFFFFF" d="M4.776122516674678e-15,-78A78,78,0,0,1,77.91165245627462,-3.7113894342519025L0,0Z"/><path fill="rgb(94, 79, 162)" stroke="#FFFFFF" d="M77.91165245627462,-3.7113894342519025A78,78,0,1,1,-1.432836755002403e-14,-78L0,0Z"/></g><text y="122" x="80" style="font-family: Arial, sans-serif; font-size: 12px; fill: black; font-weight: bold; dominant-baseline: auto; text-anchor: middle;">east</text></g></g></svg>